<svg id="visual" viewBox="0 0 900 600" width="900" height="600" xmlns="http://www.w3.org/2000/svg" xmlns:xlink="http://www.w3.org/1999/xlink" version="1.1"><g stroke-width="1" stroke-linejoin="bevel"><path d="M485 302.9L577 249.1L467 258.1Z" fill="#15384f" stroke="#15384f"></path><path d="M485 302.9L540 331.9L577 249.1Z" fill="#246688" stroke="#246688"></path><path d="M577 249.1L522 147.4L467 258.1Z" fill="#15384f" stroke="#15384f"></path><path d="M522 147.4L450 173.4L467 258.1Z" fill="#205a7a" stroke="#205a7a"></path><path d="M605 369.9L646 248.1L577 249.1Z" fill="#081a28" stroke="#081a28"></path><path d="M577 249.1L593 134.4L522 147.4Z" fill="#15384f" stroke="#15384f"></path><path d="M514 428.6L605 369.9L540 331.9Z" fill="#0c2435" stroke="#0c2435"></path><path d="M540 331.9L605 369.9L577 249.1Z" fill="#1d4e6b" stroke="#1d4e6b"></path><path d="M646 248.1L593 134.4L577 249.1Z" fill="#277297" stroke="#277297"></path><path d="M467 258.1L399 352.9L485 302.9Z" fill="#277297" stroke="#277297"></path><path d="M485 302.9L514 428.6L540 331.9Z" fill="#19435d" stroke="#19435d"></path><path d="M329 224.1L399 352.9L467 258.1Z" fill="#1d4e6b" stroke="#1d4e6b"></path><path d="M522 147.4L465 111.7L450 173.4Z" fill="#081a28" stroke="#081a28"></path><path d="M450 173.4L329 224.1L467 258.1Z" fill="#277297" stroke="#277297"></path><path d="M521 69.7L465 111.7L522 147.4Z" fill="#246688" stroke="#246688"></path><path d="M399 352.9L514 428.6L485 302.9Z" fill="#112e42" stroke="#112e42"></path><path d="M575 492.3L640 406.6L605 369.9Z" fill="#19435d" stroke="#19435d"></path><path d="M719 327.9L718 255.1L646 248.1Z" fill="#19435d" stroke="#19435d"></path><path d="M593 134.4L521 69.7L522 147.4Z" fill="#0c2435" stroke="#0c2435"></path><path d="M719 327.9L646 248.1L605 369.9Z" fill="#112e42" stroke="#112e42"></path><path d="M646 248.1L711 137.4L593 134.4Z" fill="#00101c" stroke="#00101c"></path><path d="M323 206.4L329 224.1L450 173.4Z" fill="#1d4e6b" stroke="#1d4e6b"></path><path d="M399 352.9L478 457.6L514 428.6Z" fill="#246688" stroke="#246688"></path><path d="M514 428.6L575 492.3L605 369.9Z" fill="#205a7a" stroke="#205a7a"></path><path d="M353 85.7L323 206.4L450 173.4Z" fill="#297ea6" stroke="#297ea6"></path><path d="M353 85.7L450 173.4L465 111.7Z" fill="#112e42" stroke="#112e42"></path><path d="M640 406.6L719 327.9L605 369.9Z" fill="#081a28" stroke="#081a28"></path><path d="M339 450.6L458 475.3L399 352.9Z" fill="#297ea6" stroke="#297ea6"></path><path d="M399 352.9L458 475.3L478 457.6Z" fill="#297ea6" stroke="#297ea6"></path><path d="M478 457.6L575 492.3L514 428.6Z" fill="#081a28" stroke="#081a28"></path><path d="M718 255.1L711 137.4L646 248.1Z" fill="#112e42" stroke="#112e42"></path><path d="M593 134.4L616 54.7L521 69.7Z" fill="#1d4e6b" stroke="#1d4e6b"></path><path d="M701 70.7L616 54.7L593 134.4Z" fill="#19435d" stroke="#19435d"></path><path d="M458 475.3L575 492.3L478 457.6Z" fill="#0c2435" stroke="#0c2435"></path><path d="M640 406.6L702 453.6L719 327.9Z" fill="#19435d" stroke="#19435d"></path><path d="M438 0L465 111.7L521 69.7Z" fill="#246688" stroke="#246688"></path><path d="M438 0L353 85.7L465 111.7Z" fill="#277297" stroke="#277297"></path><path d="M323 206.4L281 208.4L329 224.1Z" fill="#15384f" stroke="#15384f"></path><path d="M329 224.1L267 302.9L399 352.9Z" fill="#00101c" stroke="#00101c"></path><path d="M353 85.7L281 208.4L323 206.4Z" fill="#081a28" stroke="#081a28"></path><path d="M281 208.4L267 302.9L329 224.1Z" fill="#0c2435" stroke="#0c2435"></path><path d="M711 137.4L701 70.7L593 134.4Z" fill="#246688" stroke="#246688"></path><path d="M615 0L521 69.7L616 54.7Z" fill="#1d4e6b" stroke="#1d4e6b"></path><path d="M615 0L506 0L521 69.7Z" fill="#081a28" stroke="#081a28"></path><path d="M619 515.3L702 453.6L640 406.6Z" fill="#19435d" stroke="#19435d"></path><path d="M267 302.9L339 450.6L399 352.9Z" fill="#15384f" stroke="#15384f"></path><path d="M787 413.6L789 295.1L719 327.9Z" fill="#0c2435" stroke="#0c2435"></path><path d="M719 327.9L789 295.1L718 255.1Z" fill="#19435d" stroke="#19435d"></path><path d="M718 255.1L801 179.4L711 137.4Z" fill="#081a28" stroke="#081a28"></path><path d="M711 137.4L829 84.7L701 70.7Z" fill="#15384f" stroke="#15384f"></path><path d="M575 492.3L619 515.3L640 406.6Z" fill="#297ea6" stroke="#297ea6"></path><path d="M561 600L619 515.3L575 492.3Z" fill="#00101c" stroke="#00101c"></path><path d="M561 600L575 492.3L458 475.3Z" fill="#1d4e6b" stroke="#1d4e6b"></path><path d="M339 450.6L384 498.3L458 475.3Z" fill="#277297" stroke="#277297"></path><path d="M506 0L438 0L521 69.7Z" fill="#19435d" stroke="#19435d"></path><path d="M701 70.7L615 0L616 54.7Z" fill="#19435d" stroke="#19435d"></path><path d="M789 295.1L801 179.4L718 255.1Z" fill="#297ea6" stroke="#297ea6"></path><path d="M207 90.7L234 220.1L281 208.4Z" fill="#0c2435" stroke="#0c2435"></path><path d="M281 208.4L234 220.1L267 302.9Z" fill="#277297" stroke="#277297"></path><path d="M702 453.6L787 413.6L719 327.9Z" fill="#1d4e6b" stroke="#1d4e6b"></path><path d="M789 295.1L900 290.1L801 179.4Z" fill="#0c2435" stroke="#0c2435"></path><path d="M749 503.3L787 413.6L702 453.6Z" fill="#19435d" stroke="#19435d"></path><path d="M341 0L288 61.7L353 85.7Z" fill="#112e42" stroke="#112e42"></path><path d="M353 85.7L288 61.7L281 208.4Z" fill="#00101c" stroke="#00101c"></path><path d="M438 0L341 0L353 85.7Z" fill="#0c2435" stroke="#0c2435"></path><path d="M619 515.3L749 503.3L702 453.6Z" fill="#15384f" stroke="#15384f"></path><path d="M900 404.6L841 362.9L787 413.6Z" fill="#00101c" stroke="#00101c"></path><path d="M787 413.6L841 362.9L789 295.1Z" fill="#19435d" stroke="#19435d"></path><path d="M438 600L561 600L458 475.3Z" fill="#0c2435" stroke="#0c2435"></path><path d="M619 515.3L704 600L749 503.3Z" fill="#297ea6" stroke="#297ea6"></path><path d="M339 450.6L257 511.3L384 498.3Z" fill="#277297" stroke="#277297"></path><path d="M384 498.3L438 600L458 475.3Z" fill="#0c2435" stroke="#0c2435"></path><path d="M267 302.9L240 456.6L339 450.6Z" fill="#277297" stroke="#277297"></path><path d="M166 346.9L240 456.6L267 302.9Z" fill="#15384f" stroke="#15384f"></path><path d="M829 84.7L751 0L701 70.7Z" fill="#112e42" stroke="#112e42"></path><path d="M701 70.7L751 0L615 0Z" fill="#15384f" stroke="#15384f"></path><path d="M561 600L606 600L619 515.3Z" fill="#081a28" stroke="#081a28"></path><path d="M779 600L773 504.3L749 503.3Z" fill="#297ea6" stroke="#297ea6"></path><path d="M749 503.3L773 504.3L787 413.6Z" fill="#19435d" stroke="#19435d"></path><path d="M390 600L438 600L384 498.3Z" fill="#297ea6" stroke="#297ea6"></path><path d="M900 150.4L829 84.7L801 179.4Z" fill="#112e42" stroke="#112e42"></path><path d="M801 179.4L829 84.7L711 137.4Z" fill="#112e42" stroke="#112e42"></path><path d="M288 61.7L207 90.7L281 208.4Z" fill="#297ea6" stroke="#297ea6"></path><path d="M156 254.1L166 346.9L267 302.9Z" fill="#246688" stroke="#246688"></path><path d="M247 0L207 90.7L288 61.7Z" fill="#112e42" stroke="#112e42"></path><path d="M257 511.3L390 600L384 498.3Z" fill="#19435d" stroke="#19435d"></path><path d="M240 456.6L257 511.3L339 450.6Z" fill="#112e42" stroke="#112e42"></path><path d="M156 254.1L267 302.9L234 220.1Z" fill="#277297" stroke="#277297"></path><path d="M240 456.6L173 480.3L257 511.3Z" fill="#277297" stroke="#277297"></path><path d="M145 159.4L156 254.1L234 220.1Z" fill="#246688" stroke="#246688"></path><path d="M900 323.9L900 290.1L841 362.9Z" fill="#112e42" stroke="#112e42"></path><path d="M841 362.9L900 290.1L789 295.1Z" fill="#246688" stroke="#246688"></path><path d="M341 0L247 0L288 61.7Z" fill="#15384f" stroke="#15384f"></path><path d="M900 404.6L900 323.9L841 362.9Z" fill="#1d4e6b" stroke="#1d4e6b"></path><path d="M606 600L704 600L619 515.3Z" fill="#15384f" stroke="#15384f"></path><path d="M166 346.9L178 437.6L240 456.6Z" fill="#205a7a" stroke="#205a7a"></path><path d="M117 104.7L145 159.4L207 90.7Z" fill="#112e42" stroke="#112e42"></path><path d="M207 90.7L145 159.4L234 220.1Z" fill="#246688" stroke="#246688"></path><path d="M86 374.9L178 437.6L166 346.9Z" fill="#19435d" stroke="#19435d"></path><path d="M900 290.1L900 150.4L801 179.4Z" fill="#297ea6" stroke="#297ea6"></path><path d="M829 84.7L848 0L751 0Z" fill="#0c2435" stroke="#0c2435"></path><path d="M900 529.3L787 413.6L773 504.3Z" fill="#205a7a" stroke="#205a7a"></path><path d="M900 529.3L900 404.6L787 413.6Z" fill="#081a28" stroke="#081a28"></path><path d="M86 374.9L166 346.9L69 263.1Z" fill="#297ea6" stroke="#297ea6"></path><path d="M85 417.6L173 480.3L178 437.6Z" fill="#205a7a" stroke="#205a7a"></path><path d="M178 437.6L173 480.3L240 456.6Z" fill="#0c2435" stroke="#0c2435"></path><path d="M257 511.3L239 600L390 600Z" fill="#00101c" stroke="#00101c"></path><path d="M900 60.7L848 0L829 84.7Z" fill="#205a7a" stroke="#205a7a"></path><path d="M704 600L779 600L749 503.3Z" fill="#297ea6" stroke="#297ea6"></path><path d="M247 0L185 0L207 90.7Z" fill="#1d4e6b" stroke="#1d4e6b"></path><path d="M900 150.4L900 60.7L829 84.7Z" fill="#112e42" stroke="#112e42"></path><path d="M185 0L117 104.7L207 90.7Z" fill="#205a7a" stroke="#205a7a"></path><path d="M145 159.4L69 263.1L156 254.1Z" fill="#205a7a" stroke="#205a7a"></path><path d="M117 104.7L100 138.4L145 159.4Z" fill="#246688" stroke="#246688"></path><path d="M189 600L239 600L257 511.3Z" fill="#297ea6" stroke="#297ea6"></path><path d="M69 263.1L166 346.9L156 254.1Z" fill="#112e42" stroke="#112e42"></path><path d="M173 480.3L189 600L257 511.3Z" fill="#246688" stroke="#246688"></path><path d="M100 138.4L69 263.1L145 159.4Z" fill="#112e42" stroke="#112e42"></path><path d="M900 60.7L900 0L848 0Z" fill="#00101c" stroke="#00101c"></path><path d="M779 600L900 529.3L773 504.3Z" fill="#00101c" stroke="#00101c"></path><path d="M66 497.3L85 417.6L0 412.6Z" fill="#19435d" stroke="#19435d"></path><path d="M86 374.9L85 417.6L178 437.6Z" fill="#0c2435" stroke="#0c2435"></path><path d="M83 600L189 600L173 480.3Z" fill="#081a28" stroke="#081a28"></path><path d="M779 600L900 600L900 529.3Z" fill="#297ea6" stroke="#297ea6"></path><path d="M0 412.6L85 417.6L86 374.9Z" fill="#112e42" stroke="#112e42"></path><path d="M85 417.6L66 497.3L173 480.3Z" fill="#19435d" stroke="#19435d"></path><path d="M0 190.4L69 263.1L100 138.4Z" fill="#15384f" stroke="#15384f"></path><path d="M0 190.4L0 222.1L69 263.1Z" fill="#00101c" stroke="#00101c"></path><path d="M69 263.1L0 314.9L86 374.9Z" fill="#205a7a" stroke="#205a7a"></path><path d="M0 190.4L100 138.4L0 69.7Z" fill="#297ea6" stroke="#297ea6"></path><path d="M0 222.1L0 314.9L69 263.1Z" fill="#00101c" stroke="#00101c"></path><path d="M0 69.7L100 138.4L117 104.7Z" fill="#081a28" stroke="#081a28"></path><path d="M185 0L54 0L117 104.7Z" fill="#205a7a" stroke="#205a7a"></path><path d="M0 314.9L0 412.6L86 374.9Z" fill="#277297" stroke="#277297"></path><path d="M66 497.3L83 600L173 480.3Z" fill="#00101c" stroke="#00101c"></path><path d="M0 533.3L83 600L66 497.3Z" fill="#15384f" stroke="#15384f"></path><path d="M54 0L0 69.7L117 104.7Z" fill="#297ea6" stroke="#297ea6"></path><path d="M54 0L0 0L0 69.7Z" fill="#0c2435" stroke="#0c2435"></path><path d="M0 412.6L0 533.3L66 497.3Z" fill="#15384f" stroke="#15384f"></path><path d="M0 533.3L0 600L83 600Z" fill="#0c2435" stroke="#0c2435"></path></g></svg>